<?xml version="1.0" encoding="UTF-8" standalone="no"?>
<!-- Created with Inkscape (http://www.inkscape.org/) -->

<svg
   xmlns:dc="http://purl.org/dc/elements/1.1/"
   xmlns:cc="http://creativecommons.org/ns#"
   xmlns:rdf="http://www.w3.org/1999/02/22-rdf-syntax-ns#"
   xmlns:svg="http://www.w3.org/2000/svg"
   xmlns="http://www.w3.org/2000/svg"
   xmlns:sodipodi="http://sodipodi.sourceforge.net/DTD/sodipodi-0.dtd"
   xmlns:inkscape="http://www.inkscape.org/namespaces/inkscape"
   width="57"
   height="57"
   id="svg3839"
   version="1.1"
   inkscape:version="0.48.3.1 r9886"
   inkscape:export-filename="D:\Users\drsou_000\Documents\GitHub\WorldCountdown\apple-touch-iphone.png"
   inkscape:export-xdpi="90"
   inkscape:export-ydpi="90"
   sodipodi:docname="New document 5">
  <defs
     id="defs3841" />
  <sodipodi:namedview
     id="base"
     pagecolor="#ff8800"
     bordercolor="#666666"
     borderopacity="1.0"
     inkscape:pageopacity="1"
     inkscape:pageshadow="2"
     inkscape:zoom="1.979899"
     inkscape:cx="-77.024247"
     inkscape:cy="-34.654374"
     inkscape:document-units="px"
     inkscape:current-layer="layer1"
     showgrid="false"
     inkscape:window-width="1600"
     inkscape:window-height="847"
     inkscape:window-x="-8"
     inkscape:window-y="-8"
     inkscape:window-maximized="1" />
  <metadata
     id="metadata3844">
    <rdf:RDF>
      <cc:Work
         rdf:about="">
        <dc:format>image/svg+xml</dc:format>
        <dc:type
           rdf:resource="http://purl.org/dc/dcmitype/StillImage" />
        <dc:title></dc:title>
      </cc:Work>
    </rdf:RDF>
  </metadata>
  <g
     inkscape:label="Layer 1"
     inkscape:groupmode="layer"
     id="layer1"
     transform="translate(0,-995.36218)">
    <g
       id="g3831"
       transform="matrix(0.06461512,0,0,0.06461512,-15.132527,949.09729)"
       style="fill:#ffffff;fill-opacity:1">
      <path
         style="fill:#ffffff;fill-opacity:1"
         d="m 369.69943,1520.3813 c -4.52161,-2.8049 -9.16148,-7.9383 -10.31086,-11.4075 -1.14941,-3.4691 -2.44759,-7.3415 -2.88491,-8.6053 -2.00964,-5.8077 -2.17269,-7.4537 -1.5934,-16.0845 0.33927,-5.0551 2.02897,-10.9098 3.75485,-13.0104 1.72588,-2.1005 3.47321,-11.7512 3.88295,-21.446 0.4097,-9.6946 2.15752,-21.0733 3.88402,-25.2859 4.18901,-10.2211 9.2739,-34.3862 11.65836,-55.4044 2.12894,-18.7656 -0.2834,-23.2563 -17.19024,-31.9992 -5.69,-2.9425 -11.97986,-11.0985 -17.87042,-23.1726 -4.99949,-10.2476 -11.43224,-20.3447 -14.295,-22.438 -4.20007,-3.0712 -4.54076,-5.0473 -1.76443,-10.2348 1.89237,-3.536 2.57717,-8.6791 1.52181,-11.4294 -1.18084,-3.0771 1.00735,-8.1704 5.68929,-13.2427 10.15885,-11.0056 12.09711,-17.5202 7.93236,-26.6608 -3.84504,-8.439 -5.79393,-9.2207 -10.71609,-4.2986 -4.61697,4.617 -20.11469,-3.7496 -28.33842,-15.2988 -3.81169,-5.353 -10.43071,-9.8532 -16.32602,-11.1 -5.45337,-1.1532 -12.97683,-4.9077 -16.71875,-8.3431 -5.41714,-4.9735 -7.70275,-5.5001 -11.21619,-2.5842 -3.0058,2.4946 -5.04559,2.638 -6.39804,0.4497 -1.09196,-1.7669 -4.59228,-3.2125 -7.77842,-3.2125 -8.08798,0 -33.6736,-17.8256 -33.6736,-23.4605 0,-2.5543 -8.27202,-13.1238 -18.38226,-23.4879 -10.11024,-10.364 -18.38226,-20.5845 -18.38226,-22.7122 0,-2.1276 -1.37867,-3.8684 -3.06371,-3.8684 -4.55301,0 -3.70911,4.8415 1.61396,9.2592 4.61747,3.8322 22.89571,29.5817 22.89571,32.2544 0,3.9417 -6.59184,0.3359 -14.28298,-7.8128 -4.7712,-5.0552 -10.49565,-9.1912 -12.72098,-9.1912 -2.65182,0 -3.3759,-2.1114 -2.10128,-6.1274 1.06964,-3.3701 0.72855,-6.1274 -0.75796,-6.1274 -1.4865,0 -5.07092,-4.9662 -7.96537,-11.0359 -2.89444,-6.0697 -7.63047,-11.6797 -10.52448,-12.4667 -2.89401,-0.7869 -9.74254,-7.3297 -15.21892,-14.5395 -8.66953,-11.4137 -9.95705,-15.4846 -9.95705,-31.4823 0,-18.8288 -3.34904,-24.9679 -16.08448,-29.4844 -2.94882,-1.0457 -5.36149,-4.0126 -5.36149,-6.5931 0,-2.5804 -2.89343,-7.5851 -6.429876,-11.1215 l -6.429867,-6.4299 2.040765,6.4299 c 2.203454,6.9425 1.614514,7.4081 -5.780849,4.5702 -2.665397,-1.0228 -4.846145,-4.5985 -4.846145,-7.9461 0,-3.4757 -2.58479,-6.76241 -6.02595,-7.66229 -3.31426,-0.86668 -6.83146,-4.11379 -7.815983,-7.21574 -2.015461,-6.35015 -4.192962,-7.22741 -32.113715,-12.9378 -16.301265,-3.33392 -21.303659,-3.35592 -27.5733888,-0.12132 -9.578718,4.94195 -16.3939722,5.19691 -13.494139,0.5049 1.409153,-2.28005 0.834156,-2.70158 -1.617946,-1.18609 -2.0921762,1.29305 -3.1368722,4.90203 -2.3214962,8.02 1.8292192,6.995 -5.253557,13.37665 -11.981066,10.79508 -2.740642,-1.05168 -13.131209,1.05885 -23.090197,4.69004 -9.958956,3.63122 -18.993317,5.71612 -20.076307,4.63312 -2.3525,-2.3525 -3.16993,-1.7795 15.902523,-11.14672 l 15.31855,-7.52352 -9.957057,-1.03468 c -5.476382,-0.56904 -9.957057,-2.47348 -9.957057,-4.23205 0,-1.75854 -2.267389,-2.32729 -5.038639,-1.26387 -4.81223,1.84662 -16.40733,-5.70702 -16.40733,-10.68858 0,-1.28348 3.79134,-3.7183 8.4252,-5.41072 l 8.4252,-3.07714 -7.83963,-0.24203 c -9.5217,-0.29381 -20.57063,-7.60741 -15.87599,-10.50887 4.57228,-2.8258 16.25558,-2.93943 24.96062,-0.24263 4.982239,1.54343 6.709099,1.21056 5.326355,-1.02675 -1.125331,-1.82083 -6.150425,-4.21207 -11.166915,-5.31388 -9.70341,-2.13124 -15.61472,-7.65927 -8.19028,-7.65927 2.4344,0 8.37508,-2.05952 13.20156,-4.5767 4.826475,-2.51717 11.877419,-4.58517 15.66876,-4.59556 3.791341,-0.009 6.893347,-1.47891 6.893347,-3.2634 0,-1.78449 1.457438,-2.34378 3.23874,-1.24286 4.403773,2.72168 17.837314,4.96809 28.6780062,4.79563 4.91639601,-0.0781 22.8087678,1.7964 39.7608258,4.16575 16.952028,2.36938 32.230902,3.20023 33.953013,1.84632 3.978902,-3.12817 74.109728,-2.07074 84.319418,1.27138 l 7.65928,2.50724 -7.59855,-8.29535 c -4.17921,-4.56245 -8.08545,-6.83472 -8.6805,-5.04949 -1.1735,3.52048 -13.44727,4.22844 -24.04063,1.38666 -6.19963,-1.6631 -6.30205,-2.14558 -1.61691,-7.61742 2.85349,-3.33264 8.98636,-5.85987 14.27815,-5.88373 11.85263,-0.0536 23.06288,-3.04346 23.06288,-6.15138 0,-1.32815 -5.85935,-1.6336 -13.02077,-0.67874 -11.79173,1.57224 -12.63024,1.26321 -8.88329,-3.27416 5.74838,-6.96099 23.79614,-9.95876 29.82626,-4.95423 2.87229,2.38378 13.37701,4.03865 26.22731,4.13176 20.58463,0.1492 21.38335,0.43084 20.10964,7.09377 -0.80345,4.20301 0.17708,6.93853 2.487,6.93853 2.09736,0 4.53444,2.75735 5.41575,6.12742 0.95869,3.66604 4.17893,6.12743 8.01659,6.12743 3.65909,0 6.41424,1.97398 6.41424,4.59556 0,2.82982 -2.87341,4.59557 -7.47844,4.59557 -4.11316,0 -8.33054,1.37866 -9.37195,3.06371 -1.17724,1.90476 4.67301,3.0637 15.46551,3.0637 14.17153,0 17.03518,-0.84384 15.59551,-4.59556 -1.03545,-2.69833 -0.0414,-4.59556 2.40816,-4.59556 2.29438,0 4.96517,2.068 5.93512,4.59556 0.9699,2.52756 3.98429,4.59556 6.69862,4.59556 3.96211,0 4.51539,-1.96316 2.80608,-9.95705 -1.17098,-5.47639 -3.40605,-11.54632 -4.96686,-13.48875 -1.82701,-2.27376 -1.42818,-4.10038 1.11969,-5.12826 3.08188,-1.24331 2.94071,-2.31564 -0.63804,-4.8466 -3.96563,-2.80452 -3.86065,-3.25645 0.76592,-3.29695 2.94882,-0.0245 5.36149,1.17098 5.36149,2.65949 0,1.4885 3.10201,3.57853 6.89336,4.64452 6.46605,1.81801 6.54512,2.14334 1.27557,5.24856 -5.35098,3.15318 -5.288,3.66144 1.3267,10.70249 4.45394,4.74097 8.94632,6.75671 12.52623,5.62049 3.5028,-1.11172 6.2799,0.0478 7.45627,3.11344 1.44249,3.75911 2.84353,4.08083 6.07859,1.39598 5.57432,-4.62626 2.56157,-8.92219 -6.25714,-8.92219 -13.15676,0 -18.41654,-15.11889 -5.37501,-15.45014 2.84938,-0.0724 -4.81467,-4.40087 -17.03121,-9.61885 -12.21655,-5.21799 -22.2119,-10.69973 -22.2119,-12.18162 0,-3.44962 14.16635,-0.0732 26.04153,6.20646 5.05512,2.67324 11.94847,5.00129 15.31855,5.17342 3.37008,0.17217 14.13614,0.5488 23.92457,0.83703 20.91613,0.61586 21.28301,6.65143 0.40429,6.65143 -12.09621,0 -13.59506,0.76489 -13.50845,6.89336 0.0901,6.3833 0.39859,6.49662 4.16741,1.53185 5.72987,-7.54822 33.86603,-7.14871 53.94565,0.76592 8.54996,3.37009 18.78024,6.12743 22.73392,6.12743 4.61193,0 7.76286,2.19625 8.79089,6.12742 0.94001,3.59465 4.17893,6.12742 7.83577,6.12742 3.42839,0 7.0855,1.37866 8.12692,3.0637 1.04142,1.68505 4.56947,3.06371 7.8401,3.06371 7.85361,0 7.57946,5.03793 -0.50974,9.36718 -4.66916,2.49885 -7.38296,2.52869 -9.80388,0.10784 -1.84114,-1.84117 -5.48447,-3.27523 -8.09627,-3.18685 -3.44981,0.11673 -2.8632,1.47601 2.14459,4.96925 9.8475,6.86927 8.53191,11.77044 -3.06459,11.41701 -5.47589,-0.16698 -10.99018,-0.51155 -12.25396,-0.76592 -1.26378,-0.2543 -2.64244,-0.49369 -3.06371,-0.53181 -0.42126,-0.0383 -7.20238,-2.00642 -15.06913,-4.37396 -7.86678,-2.36754 -17.1728,-3.55424 -20.68004,-2.63707 -4.51797,1.1815 -6.37684,0.22366 -6.37684,-3.2853 0,-3.27728 2.66521,-4.95288 7.87812,-4.95288 8.43963,0 18.87864,-8.07285 15.04499,-11.63481 -1.2738,-1.18354 -2.93148,-0.42855 -3.68375,1.67775 -0.75223,2.10629 -3.96688,3.82963 -7.14368,3.82963 -3.80176,0 -5.19001,-1.52689 -4.06168,-4.46729 1.97089,-5.13612 -11.09768,-9.61879 -19.09519,-6.54983 -3.73079,1.43164 -4.11572,2.90069 -1.56528,5.97377 4.7881,5.7693 1.23599,8.05351 -13.15977,8.46246 -6.88056,0.19546 -9.75279,0.96213 -6.38271,1.7037 10.48944,2.30814 22.97782,7.77401 22.97782,10.05681 0,1.19978 -6.20401,2.18142 -13.78669,2.18142 -7.58269,0 -13.7867,-1.0037 -13.7867,-2.23047 0,-4.12299 -20.4544,2.33516 -30.18765,9.53126 -5.30233,3.92017 -9.64058,7.94058 -9.64058,8.93426 0,5.13968 13.25999,11.59701 34.83334,16.96313 13.26072,3.29844 24.7792,7.74011 25.59665,9.87031 0.81744,2.1303 2.72049,3.1104 4.22894,2.1781 1.50847,-0.9323 2.74269,1.2585 2.74269,4.8685 0,3.9289 1.53725,6.0212 3.82964,5.2125 4.15715,-1.4665 4.34186,-6.5403 0.57438,-15.776 -1.85375,-4.54424 -1.34205,-5.48581 2.23529,-4.11304 2.55163,0.97916 6.52751,0.61335 8.83525,-0.81293 3.50004,-2.16316 3.4061,-3.5134 -0.56633,-8.14175 -6.62941,-7.72398 -2.99815,-20.56049 6.19081,-21.88454 11.05573,-1.59307 34.44023,6.29862 32.63142,11.01229 -2.55701,6.66344 7.32355,8.00453 14.05979,1.90833 6.18438,-5.59679 6.45628,-5.5066 16.52761,5.48315 5.6319,6.14546 12.74638,12.02435 15.80997,13.06418 3.06358,1.03985 8.83452,4.61701 12.82429,7.94931 5.85334,4.8886 6.54191,6.9168 3.56588,10.5026 -4.21781,5.0822 -1.78957,10.8399 4.57155,10.8399 2.36883,0 5.73864,2.6751 7.48845,5.9447 2.83083,5.2894 2.25182,5.8344 -5.25372,4.9449 -4.63934,-0.5499 -11.53717,-1.157 -15.3285,-1.3491 -8.13596,-0.4123 -8.79126,-4.1412 -1.93306,-10.9994 7.94562,-7.9456 3.20192,-8.3153 -10.97224,-0.8551 -9.6323,5.0697 -13.50312,5.8898 -14.53638,3.08 -1.90474,-5.1798 -10.66904,-4.8318 -17.92841,0.7118 -5.54988,4.2382 -5.28205,4.4172 4.01,2.6807 7.91203,-1.4785 9.95706,-0.8382 9.95706,3.1179 0,4.5679 1.84212,5.3175 15.27765,6.2166 2.50507,0.1675 4.95671,2.3924 5.44814,4.9441 1.14058,5.9226 -27.13835,13.449 -30.50246,8.1182 -3.38644,-5.3662 -19.52738,1.6917 -18.42834,8.0581 0.5958,3.4515 -1.14196,5.2149 -5.13913,5.2149 -3.32164,0 -8.7505,3.4466 -12.06415,7.6592 -3.31364,4.2126 -7.59822,7.6593 -9.52127,7.6593 -2.41384,0 -2.58531,1.7026 -0.55377,5.4986 2.43106,4.5425 0.56725,7.073 -10.71857,14.5526 -12.39543,8.2151 -13.47787,9.9057 -11.68165,18.2452 5.0145,23.281 -0.49776,30.65 -9.20366,12.3037 -2.84849,-6.0028 -6.3826,-10.1703 -7.85357,-9.2611 -1.47102,0.9091 -3.54052,0.2518 -4.59891,-1.4608 -2.53932,-4.1087 -19.94499,-4.0312 -19.94499,0.089 0,1.9886 -3.98512,2.4549 -10.51285,1.2303 -17.01541,-3.1921 -26.03482,5.4163 -26.15541,24.9635 -0.1201,19.4498 6.79234,27.416 21.06834,24.2804 5.12672,-1.126 9.01065,-3.4962 8.63095,-5.2671 -0.76586,-3.5722 15.52649,-10.2362 18.28401,-7.4787 0.95753,0.9575 0.32865,7.3052 -1.39757,14.1059 -2.29773,9.0524 -2.19987,12.4457 0.36535,12.6667 1.92713,0.1661 6.95054,0.5107 11.16314,0.7659 6.85888,0.4156 7.81935,2.0608 9.19114,15.7436 l 1.53185,15.2796 15.94446,0.3156 c 10.42587,0.2065 16.46858,-1.0502 17.45871,-3.6305 0.83284,-2.1703 5.72117,-6.1215 10.86299,-8.7804 9.09802,-4.7048 9.35002,-4.6475 9.39566,2.1375 0.0325,4.8123 0.82491,5.7457 2.55833,3.0134 1.81304,-2.8578 5.84666,-3.2838 14.50572,-1.5318 6.59687,1.3347 17.16191,2.3823 23.47791,2.328 9.64309,-0.083 11.20585,0.7764 9.75059,5.3615 -1.14644,3.6121 -0.14798,5.4602 2.94968,5.4602 2.57548,0 7.41654,2.9345 10.75791,6.521 3.3414,3.5866 7.94524,5.8035 10.23076,4.9265 2.28553,-0.8771 7.07228,-0.022 10.63717,1.9041 6.59709,3.5611 20.86552,19.9175 18.8345,21.5906 -0.61336,0.5053 -3.43506,2.1589 -6.27046,3.6747 -3.818,2.0411 -1.71669,2.8891 8.10063,3.269 7.29074,0.2822 17.46952,2.692 22.61946,5.3551 5.14997,2.6631 12.60297,4.8421 16.56223,4.8421 3.95927,0 8.73703,1.5383 10.61723,3.4185 1.88017,1.8802 6.63658,5.06 10.56979,7.066 10.10875,5.156 8.96702,20.9187 -2.37247,32.7546 -6.02825,6.2921 -8.73816,12.5131 -9.17792,21.0693 -0.77782,15.1328 -11.80322,33.7302 -19.99675,33.7302 -10.81584,0 -24.10082,8.8713 -24.20508,16.1632 -0.11213,7.8361 -6.60046,17.5377 -11.72923,17.5377 -1.92055,0 -3.4919,1.8101 -3.4919,4.0223 0,6.8775 -16.85218,20.8822 -22.51372,18.7097 -3.86386,-1.4828 -4.65103,-0.7224 -3.19098,3.0825 2.78485,7.2572 -7.37153,17.0774 -17.66208,17.0774 -5.87188,0 -8.71628,1.5671 -8.71628,4.802 0,3.4079 -1.77904,4.2374 -6.12742,2.8573 -6.54715,-2.078 -8.73984,3.1408 -2.29779,5.4689 2.5389,0.9175 0.79681,4.6177 -5.16875,10.9783 -4.94912,5.2769 -7.36179,9.5944 -5.36149,9.5944 6.42362,0 3.88203,8.8892 -4.02238,14.0684 -4.2126,2.7602 -7.65927,6.7143 -7.65927,8.7869 0,5.4351 10.21006,13.8727 17.09164,14.1245 5.63962,0.2062 5.62953,0.3256 -0.24111,2.8483 -9.85586,4.2352 -23.87696,3.2932 -32.73072,-2.1991 z m -20.90949,-470.2795 c 0.0306,-2.6428 -8.12158,0.4925 -17.59105,6.7657 -11.54197,7.6461 -7.68838,9.1426 5.33622,2.0722 6.72625,-3.6513 12.24093,-7.6284 12.25483,-8.8379 z m -39.27041,-5.7452 c 6.83866,-3.6599 10.32044,-1.4702 12.63204,7.9443 1.43333,5.8376 1.60879,5.803 3.70938,-0.7314 1.21271,-3.7725 3.42686,-6.1038 4.92032,-5.1808 1.49347,0.9231 2.7154,0.3657 2.7154,-1.2385 0,-7.0122 -27.70326,-9.3723 -32.94287,-2.8063 -1.68085,2.1063 -2.65388,7.2763 -2.16231,11.4889 1.30735,11.2037 2.16659,11.752 3.59888,2.2966 0.70205,-4.6346 4.09014,-9.9323 7.52916,-11.7728 z m -180.72974,-15.6973 c -2.1984,-2.1984 -3.62538,-2.3793 -3.62538,-0.4596 0,4.0894 3.62317,7.7126 5.66786,5.6679 0.87061,-0.8706 -0.0484,-3.2143 -2.04248,-5.2083 z m 183.17669,4.1269 c 0.79617,-0.2197 -1.58136,-2.521 -5.28343,-5.114 -6.0648,-4.2479 -7.64855,-4.2402 -16.00025,0.079 -5.09804,2.6363 -9.26919,5.1409 -9.26919,5.5657 0,0.7502 27.65117,0.2702 30.55287,-0.5304 z M 199.83844,914.53062 c -1.63504,-4.26085 -4.50941,-5.04776 -13.85821,-3.79382 -6.48743,0.87016 -12.56626,0.33464 -13.50856,-1.19001 -0.94228,-1.52465 -4.04456,-2.72826 -6.89393,-2.67467 -4.53193,0.0852 -4.43598,0.66071 0.76638,4.59556 3.27089,2.47398 11.88757,4.49814 19.14819,4.49814 8.01552,0 13.20113,1.40403 13.20113,3.57434 0,1.96586 0.72178,2.85252 1.60397,1.97033 0.88217,-0.88217 0.67564,-4.02311 -0.45897,-6.97987 z M 1503.8339,1478.8171 c 0,-2.1642 4.4806,-6.5675 9.957,-9.785 5.4764,-3.2177 11.7789,-7.6509 14.0055,-9.8518 5.2158,-5.1552 12.802,-5.1594 12.802,-0.01 0,7.2468 -19.7304,23.5787 -28.4852,23.5787 -4.6992,0 -8.2793,-1.7015 -8.2793,-3.9349 z m -102.3787,-13.3539 c -2.3016,-5.9979 -2.467,-5.8282 8.1695,-8.38 9.4156,-2.2588 10.9101,1.3005 3.6109,8.5997 -6.1485,6.1485 -9.3596,6.0886 -11.7804,-0.2197 z m 140.675,-11.1669 c -1.685,-2.0422 -3.2922,-9.2278 -3.5716,-15.968 -0.4943,-11.9253 -0.3812,-12.0695 4.2034,-5.3615 2.5912,3.7915 7.3004,6.8935 10.4649,6.8935 7.0213,0 7.1111,1.2077 0.8058,10.8307 -5.5207,8.4257 -7.4444,9.0083 -11.9025,3.6053 z m -158.9031,-9.9198 c -2.753,-2.0129 -5.0054,-5.2196 -5.0054,-7.1259 0,-1.9062 -2.7572,-5.1879 -6.1274,-7.2925 -3.37,-2.1046 -6.1274,-5.7767 -6.1274,-8.1601 0,-3.4668 -1.1204,-3.3194 -5.6027,0.7369 -6.8753,6.2221 -9.7158,6.4265 -9.7158,0.6993 0,-8.4307 -15.4041,-12.9509 -31.9533,-9.3765 -8.3065,1.7942 -15.6594,4.932 -16.3397,6.9731 -0.6804,2.041 -4.4005,3.7109 -8.2668,3.7109 -3.8664,0 -11.941,2.052 -17.9437,4.56 -9.8391,4.1112 -11.4058,4.068 -15.9115,-0.4376 -4.4176,-4.4176 -4.4701,-5.5254 -0.4529,-9.5426 4.0172,-4.0172 3.8205,-5.8334 -1.6944,-15.6468 -3.4315,-6.106 -6.8425,-16.8817 -7.5801,-23.9456 -1.2125,-11.6126 -0.5153,-13.2618 7.2747,-17.2068 4.7386,-2.3998 13.7857,-5.2994 20.1046,-6.4434 7.1478,-1.2942 11.4889,-3.789 11.4889,-6.6027 0,-2.4872 3.4201,-6.0807 7.6004,-7.9853 4.1802,-1.9046 8.4091,-6.0111 9.3975,-9.1255 2.019,-6.3611 7.6479,-7.3645 12.7412,-2.2713 2.4792,2.4792 4.718,1.3663 8.3246,-4.1381 3.4866,-5.321 7.3889,-7.3548 13.306,-6.9344 4.605,0.3272 11.2835,0.8107 14.8411,1.0744 4.945,0.3665 6.173,2.1031 5.2137,7.3729 -0.9529,5.2356 1.1064,8.2145 8.564,12.3877 12.2727,6.8676 16.1669,3.5927 15.515,-13.0473 -0.2666,-6.7987 0.8843,-12.3612 2.5573,-12.3612 1.6728,0 3.0416,1.2728 3.0416,2.8286 0,1.5558 3.3571,6.8184 7.4603,11.6948 4.1033,4.8763 8.3763,12.5155 9.4957,16.9757 1.1195,4.4603 4.311,8.8679 7.0923,9.7948 8.2176,2.7385 22.4032,25.4571 24.1835,38.7308 2.2147,16.5118 -12.21,47.2937 -23.6685,50.508 -12.9249,3.6256 -26.5383,3.4526 -31.8128,-0.4043 z m -583.76403,-22.3706 c -1.8404,-3.439 -3.34621,-8.5384 -3.34621,-11.3322 0,-2.7938 -2.75734,-8.5851 -6.12741,-12.8694 -3.37009,-4.2844 -6.12743,-11.0964 -6.12743,-15.1378 0,-4.0413 -3.44667,-14.1496 -7.65927,-22.4628 -8.84616,-17.4571 -9.79548,-31.1269 -2.65738,-38.2649 4.06227,-4.0624 4.35005,-6.4327 1.53186,-12.6179 -1.90854,-4.1887 -3.47005,-10.2605 -3.47005,-13.4926 0,-3.2322 -4.00454,-10.4376 -8.89898,-16.012 -6.94411,-7.9089 -8.53635,-12.1387 -7.24815,-19.2548 0.90796,-5.0157 2.91145,-10.7201 4.45218,-12.6763 3.89306,-4.9431 -2.2653,-8.1713 -11.27448,-5.9101 -5.32917,1.3375 -8.53966,0.067 -11.88024,-4.7027 -3.65282,-5.2151 -6.32018,-6.0797 -13.2033,-4.2794 -4.74409,1.2408 -16.55301,2.9199 -26.24199,3.7313 -9.68898,0.8114 -17.61633,2.7315 -17.61633,4.2669 0,7.0144 -9.45148,1.3009 -25.7904,-15.5907 -9.77946,-10.1102 -19.00668,-18.3822 -20.5049,-18.3822 -3.96119,0 -3.34559,-20.7003 0.68977,-23.1943 2.07891,-1.2848 2.76309,-6.9613 1.74975,-14.5166 -2.0817,-15.5201 6.68566,-34.1313 19.51757,-41.4317 4.9395,-2.8102 8.98963,-7.6584 9.00029,-10.7736 0.009,-3.1153 4.15537,-9.5278 9.2105,-14.25 10.52115,-9.8282 11.75368,-15.3185 3.43882,-15.3185 -8.69413,0 -11.81553,-6.2696 -10.29581,-20.6801 l 1.37316,-13.0207 17.70313,0 c 15.35065,0 17.92448,-0.8464 19.36877,-6.3694 1.3041,-4.9869 -0.44697,-7.2626 -8.06788,-10.4851 l -9.7335,-4.1157 8.62465,-3.3016 c 4.74354,-1.8159 11.21088,-3.3016 14.3718,-3.3016 3.16096,0 6.39857,-1.054 7.1947,-2.3422 0.79616,-1.2882 -4.60197,-2.1385 -11.99584,-1.8896 -15.31557,0.5155 -22.61232,-4.8784 -15.06867,-11.139 4.15941,-3.452 3.51319,-4.9526 -5.32369,-12.36248 -11.62182,-9.74502 -10.27261,-12.76719 5.92338,-13.26823 9.53668,-0.29503 11.75328,0.76799 12.50049,5.99483 0.49954,3.4944 5.69868,10.87188 11.55362,16.39448 10.22271,9.6423 10.94265,9.8462 18.13213,5.1354 4.11772,-2.698 10.16355,-4.9055 13.43516,-4.9055 4.53656,0 5.5486,-1.5287 4.26402,-6.441 -0.98683,-3.77364 0.0836,-7.56048 2.5846,-9.14423 6.53361,-4.13721 8.86454,-3.34765 8.86454,3.00262 0,8.00541 7.23118,10.04491 27.4885,7.75301 13.64487,-1.5437 17.91569,-3.34317 20.22277,-8.52075 1.99372,-4.47433 5.23445,-6.3086 10.18038,-5.76226 6.15793,0.68028 6.67414,0.10081 3.41209,-3.82963 -3.34549,-4.03105 -1.78652,-4.63114 12.03097,-4.63114 10.96431,0 15.21662,-1.06445 13.7476,-3.4414 -1.35866,-2.19836 -7.49996,-2.80504 -17.00248,-1.67958 -12.57611,1.48944 -15.35915,0.85826 -18.00374,-4.0832 -2.63467,-4.92295 -1.31884,-7.07441 8.34175,-13.63893 l 11.46988,-7.79398 -9.90234,0 c -6.90438,0 -9.90231,1.43865 -9.90231,4.7519 0,2.61353 -4.97694,6.83137 -11.05984,9.373 -10.04253,4.19602 -10.56505,4.98288 -5.68061,8.55449 5.06462,3.70331 4.961,4.49911 -1.77113,13.60482 -3.93273,5.31928 -8.61448,9.69028 -10.4039,9.71325 -1.78942,0.0245 -6.17735,0.82657 -9.75099,1.78569 -5.11995,1.3741 -6.91859,0.0662 -8.48356,-6.16928 -2.04292,-8.1396 -6.19054,-10.25046 -9.5286,-4.84935 -5.18172,8.38417 -19.91412,-1.73097 -19.91412,-13.67288 0,-5.51146 2.92428,-8.26482 13.02077,-12.25972 7.16143,-2.83356 17.97329,-9.944 24.02635,-15.80099 19.91965,-19.27443 55.7079,-24.25097 97.38758,-13.54227 12.8405,3.29909 27.19408,6.78621 31.89686,7.74911 4.70277,0.96289 7.906,2.79355 7.11829,4.06811 -0.78774,1.27457 1.22389,2.31739 4.47026,2.31739 3.62391,0 5.90249,-2.11197 5.90249,-5.47093 0,-3.52103 2.30068,-5.4709 6.4552,-5.4709 4.2229,0 5.89537,1.45885 4.83637,4.21862 -1.3139,3.42394 0.5,3.66379 9.62927,1.27328 6.18646,-1.61992 20.20946,-3.35593 31.16222,-3.85777 10.95276,-0.50187 22.37957,-1.93194 25.39294,-3.17796 5.45353,-2.25501 24.12173,-0.33259 34.84753,3.58856 5.4165,1.98019 5.4138,1.81233 -0.074,-4.4419 -5.6105,-6.3942 -5.5626,-6.62095 2.9501,-13.94328 12.2575,-10.54342 21.5875,-6.17999 21.324,9.97269 -0.1042,6.3564 -2.2566,14.10078 -4.7842,17.20981 -4.0849,5.02463 -4.0849,5.36538 0,3.06674 12.1293,-6.82524 14.9797,-11.33757 12.0422,-19.06366 -2.9871,-7.85611 -1.5831,-13.22738 3.4571,-13.22738 1.5856,0 2.9267,2.41267 2.9803,5.36149 0.09,4.93864 0.4398,4.90935 4.439,-0.37144 5.1878,-6.85046 16.9257,-4.97397 26.0669,4.16725 3.2658,3.26577 6.7456,4.63062 7.7329,3.03298 0.9874,-1.59763 -2.7536,-5.67818 -8.3134,-9.06793 l -10.1087,-6.16315 10.1584,-0.0123 c 5.5872,-0.006 13.1699,-1.65572 16.8504,-3.66539 8.0722,-4.40758 31.732,-8.81084 52.6476,-9.79806 8.4252,-0.39769 19.1099,-2.58031 23.7438,-4.8503 6.5827,-3.22468 10.1317,-3.34971 16.2286,-0.57175 4.2919,1.9554 15.2399,3.55536 24.3289,3.55536 16.3935,0 23.5483,3.54242 16.2565,8.04893 -5.9345,3.66775 37.1011,10.70626 43.7393,7.15358 3.0293,-1.62123 10.4579,-2.94766 16.508,-2.94766 9.0292,0 11.5432,1.42821 14.0307,7.97069 2.2281,5.86039 4.4387,7.42289 8.3493,5.90151 2.9254,-1.13808 11.8883,-2.38206 19.9174,-2.76445 15.0814,-0.71822 29.5744,-9.40393 20.4122,-12.23311 -15.6275,-4.82566 -16.444,-5.33953 -12.4271,-7.82205 4.6335,-2.86368 31.2766,-0.67516 35.1694,2.88896 1.4334,1.31234 -0.6346,3.41634 -4.5956,4.67558 -6.8939,2.19166 -6.9398,2.39186 -1.0743,4.68457 3.3701,1.31727 10.9528,2.54079 16.8504,2.71895 5.8977,0.1783 14.1697,2.25259 18.3823,4.6099 4.9456,2.76745 12.244,3.67084 20.5992,2.54981 9.0858,-1.21911 15.1625,-0.28004 20.4022,3.15326 5.464,3.58018 11.508,4.41032 22.5707,3.1001 9.4058,-1.114 17.7524,-0.37436 22.1134,1.95961 4.9588,2.65388 7.605,2.77839 9.0586,0.42629 1.3392,-2.16684 9.0972,-2.66497 22.3015,-1.43192 19.7814,1.8472 20.2832,2.11068 21.7729,11.43159 0.9602,6.0079 -0.027,10.77145 -2.6704,12.8643 -3.1935,2.5298 -3.3429,4.17602 -0.6255,6.89334 2.7173,2.71731 1.9858,3.56984 -3.0633,3.56984 -3.6481,0 -13.2299,2.32435 -21.2928,5.16523 -8.0627,2.84089 -21.8456,5.31643 -30.6285,5.50117 -18.2521,0.38398 -18.9734,0.81311 -21.1026,12.555 -1.4073,7.7612 -14.5027,21.6219 -32.7098,34.6218 -5.444,3.8872 -5.6577,3.7348 -2.6485,-1.888 2.3507,-4.3924 2.2779,-8.7534 -0.258,-15.4716 -4.3606,-11.55249 -0.3324,-17.45215 16.5201,-24.1952 9.9347,-3.97504 10.9705,-5.24448 7.2857,-8.92924 -5.9892,-5.98919 -10.9777,-5.2316 -21.3417,3.2411 -8.3651,6.83857 -10.7022,7.20262 -35.7987,5.57672 -25.612,-1.65934 -27.2814,-1.37598 -36.2239,6.14861 -5.1559,4.33846 -12.3639,8.83688 -16.0175,9.99653 -8.4875,2.69378 -3.1071,5.97278 14.5802,8.88538 10.9533,1.8037 12.9805,3.4206 15.7977,12.5999 1.8295,5.9607 2.027,10.5305 0.4551,10.5305 -1.5273,0 -2.8207,3.7914 -2.8743,8.4252 -0.095,8.1452 -0.25,8.2235 -4.6839,2.3574 -2.893,-3.8274 -3.8983,-9.2006 -2.7228,-14.5526 2.5538,-11.6277 -0.6913,-10.671 -5.8735,1.7315 -5.0118,11.9951 -29.9103,33.507 -36.0534,31.1497 -2.3368,-0.8967 -8.6171,2.3593 -13.9559,7.2357 -8.5151,7.7773 -9.2178,9.5703 -5.7215,14.599 5.4714,7.8696 0.8652,19.5194 -7.7177,19.5194 -5.4657,0 -6.238,-1.276 -4.636,-7.6592 1.4187,-5.6522 0.7028,-7.6593 -2.7315,-7.6593 -2.6115,0 -4.654,-2.6892 -4.654,-6.1274 0,-7.0004 -1.1557,-7.3641 -9.3926,-2.956 -4.6457,2.4864 -5.926,2.1696 -5.926,-1.4661 0,-3.8477 -1.3182,-4.0371 -7.7385,-1.1118 -9.5764,4.3633 -8.2944,9.8076 2.6134,11.0989 9.2741,1.0979 10.6158,5.0271 3.1444,9.2084 -4.6835,2.621 -4.6835,3.3384 0,10.025 9.2789,13.2475 6.5763,24.2943 -9.5081,38.8656 -13.7313,12.4394 -18.9016,15.1324 -33.1151,17.2478 -3.712,0.5525 -5.9804,3.3372 -6.0357,7.4094 -0.1201,8.8741 -6.4874,15.0901 -10.9183,10.6592 -2.421,-2.421 -2.3523,-5.2074 0.2481,-10.0663 5.0417,-9.4206 1.1347,-11.7185 -6.6642,-3.9195 l -6.5296,6.5296 9.6784,11.0231 c 12.2254,13.924 12.4641,23.7276 0.7803,32.0473 -11.5377,8.2155 -12.8146,8.0588 -23.2708,-2.8551 -10.6168,-11.0815 -11.3212,-11.1573 -15.7102,-1.6903 -2.9815,6.4311 -2.4141,8.4231 4.1385,14.5287 8.5623,7.9782 21.0387,32.3307 18.0798,35.2896 -3.1961,3.1961 -16.9503,-11.6838 -20.9024,-22.6131 -2.0279,-5.608 -4.8106,-10.1964 -6.184,-10.1964 -1.3733,0 -2.3829,-3.7913 -2.2436,-8.4252 0.4008,-13.3343 -3.7579,-34.4667 -6.7829,-34.4667 -1.5161,0 -3.55,2.068 -4.5199,4.5956 -2.5735,6.7062 -7.2354,5.6168 -7.2354,-1.6908 0,-6.7217 -12.373,-30.4152 -15.9037,-30.4546 -1.1643,-0.012 -2.969,1.3551 -4.0104,3.0401 -1.0415,1.6851 -4.6673,3.0637 -8.0575,3.0637 -3.3902,0 -13.6315,6.5487 -22.7583,14.5527 -12.3891,10.8647 -16.6042,16.6613 -16.633,22.8738 -0.039,8.3457 -8.8501,30.0884 -12.095,29.8458 -3.9805,-0.2975 -24.712,-48.1435 -24.7102,-57.0284 0,-8.0875 -0.9782,-9.4139 -5.9865,-8.1042 -4.5247,1.1833 -6.478,-0.3846 -7.9914,-6.4142 -1.1016,-4.3892 -3.7526,-7.9803 -5.8912,-7.9803 -2.1385,0 -5.6531,-2.1264 -7.81,-4.7254 -2.7208,-3.2784 -4.8997,-3.7475 -7.1153,-1.5319 -5.1704,5.1704 -25.0266,3.6785 -32.95794,-2.4763 -4.01857,-3.1185 -9.09991,-5.0483 -11.29185,-4.2884 -6.0961,2.1133 -21.89507,-5.462 -25.52082,-12.2368 -2.24172,-4.1887 -4.20813,-5.0585 -6.42482,-2.8418 -2.21665,2.2167 -0.17554,7.0058 6.66869,15.6475 11.05172,13.9539 11.63707,14.1867 20.34015,8.0909 5.58407,-3.9113 7.23115,-3.5771 15.93206,3.2324 l 9.70414,7.5946 -7.85795,11.8742 c -7.94503,12.0057 -18.92956,18.5304 -49.07704,29.1511 -19.02862,6.7036 -24.40987,5.0781 -27.21472,-8.2208 -1.17904,-5.5902 -5.25375,-13.6107 -9.05489,-17.8233 -3.80118,-4.2126 -10.15458,-14.3088 -14.11868,-22.4359 -7.1492,-14.6571 -11.08766,-19.351 -13.88749,-16.5512 -2.69181,2.6919 20.61427,48.0408 31.20288,60.7145 5.76825,6.9042 10.48778,14.4907 10.48778,16.8588 0,5.5061 5.21847,5.4355 21.44597,-0.2898 7.16386,-2.5276 13.71355,-4.5956 14.55486,-4.5956 3.31695,0 -2.59846,19.3874 -8.40241,27.5383 -3.38384,4.7521 -6.15245,10.1154 -6.15245,11.9183 0,1.8029 -3.96188,5.3268 -8.80419,7.8308 -4.84228,2.5041 -14.4899,11.3438 -21.43914,19.6439 -10.76808,12.8613 -12.35118,16.5101 -10.71422,24.6949 1.0564,5.282 3.12134,10.3458 4.58873,11.2526 1.4674,0.907 2.66801,7.3016 2.66801,14.2102 0,10.9757 -1.74583,14.1642 -13.83044,25.259 -12.24666,11.2436 -13.61265,13.7868 -11.92837,22.2081 1.5346,7.673 0.65523,10.1776 -4.55183,12.9643 -3.54964,1.8998 -6.45388,5.9742 -6.45388,9.0544 0,9.0902 -28.80693,34.0123 -39.31402,34.0123 -4.91667,0 -13.12061,0.8361 -18.231,1.8583 -7.36295,1.4725 -9.98613,0.5604 -12.63781,-4.3942 z m 72.7732,-158.1498 c 0.67707,-3.4927 -0.42699,-4.9658 -3.06371,-4.0878 -2.26722,0.755 -4.59857,3.8298 -5.18074,6.8331 -0.67708,3.4927 0.42699,4.9658 3.06371,4.0878 2.26721,-0.755 4.59856,-3.8299 5.18074,-6.8331 z m -63.87768,-153.3289 c 2.946,-3.5497 7.68173,-4.1345 21.05519,-2.5999 9.48987,1.089 17.94363,2.8052 18.78615,3.8139 0.84251,1.0086 6.44644,2.1078 12.45315,2.4425 9.08323,0.5061 11.79029,-0.8625 16.08448,-8.132 8.48803,-14.3691 6.94742,-17.1723 -8.75152,-15.9237 -19.02567,1.5131 -32.04095,-4.1806 -32.04095,-14.0169 0,-5.6855 -1.22809,-7.1441 -4.84615,-5.7557 -2.66536,1.0228 -5.59151,1.8596 -6.50254,1.8596 -0.91103,0 0.18382,2.2172 2.43271,4.9271 3.47428,4.1863 3.2123,5.5682 -1.7423,9.1911 -8.41138,6.1506 -9.38708,5.6605 -18.00405,-9.0432 -7.67579,-13.0978 -25.83653,-29.5847 -32.58828,-29.5847 -5.69035,0 -0.29043,5.8822 13.24298,14.4254 7.01332,4.4273 11.03343,8.6224 8.93359,9.3223 -2.09983,0.7 -3.8902,3.5704 -3.97859,6.3788 -0.12776,4.0623 -1.14374,3.6969 -4.96925,-1.7871 -2.64471,-3.7914 -6.60262,-6.8934 -8.79538,-6.8934 -2.19274,0 -8.30471,-3.6333 -13.58217,-8.074 -8.06242,-6.784 -10.74272,-7.5511 -16.77712,-4.8017 -3.94994,1.7997 -10.07783,2.5149 -13.61751,1.5892 -4.42624,-1.1575 -6.43579,-0.2481 -6.43579,2.9126 0,2.5276 -2.75038,5.3148 -6.11194,6.1939 -3.3616,0.879 -7.06749,4.1418 -8.23534,7.2506 -2.92983,7.7991 -10.38384,13.0983 -18.5876,13.2142 -3.79134,0.054 -6.89334,1.4761 -6.89334,3.1612 0,4.4789 10.42764,3.7452 24.01005,-1.6894 7.60982,-3.0449 18.91831,-4.4213 31.46503,-3.8297 19.08032,0.8997 19.57193,1.1335 19.04856,9.06 -0.45916,6.9539 1.54478,9.0331 13.78669,14.3047 17.48186,7.528 26.16157,8.1085 31.16124,2.0843 z m -33.93191,-27.8834 c -3.54309,-4.2692 -3.13509,-4.7553 3.21454,-3.8297 3.99998,0.5831 7.84025,2.7835 8.53394,4.8898 1.8153,5.5122 -6.9504,4.7212 -11.74848,-1.0601 z m -24.26546,-12.2159 c 0,-2.668 1.63715,-4.3052 3.63815,-3.6382 5.68079,1.8936 6.623,8.489 1.2127,8.489 -2.66797,0 -4.85085,-2.1829 -4.85085,-4.8508 z m 216.0844,5.6168 c -1.16651,-6.3189 -4.91103,-14.4889 -8.32122,-18.1555 -7.54818,-8.1158 -4.80987,-13.9454 5.35243,-11.3948 9.27396,2.3276 9.98159,-3.3575 1.01516,-8.1562 -4.66916,-2.4989 -7.38297,-2.5287 -9.80388,-0.1079 -1.84114,1.8412 -7.06032,3.3476 -11.59813,3.3476 -4.53785,0 -8.94456,1.8083 -9.7927,4.0186 -1.85188,4.8259 6.43273,15.7981 13.90729,18.4189 6.57215,2.3043 6.98431,7.7691 0.76593,10.1553 -5.57583,2.1397 -6.05298,9.2004 -0.76593,11.3338 2.1063,0.8499 7.77441,1.6541 12.59579,1.7871 8.49108,0.2344 8.69963,-0.1185 6.64526,-11.247 z m -92.00416,-13.6043 c 1.68504,0.067 10.30172,1.1077 19.14819,2.3116 18.95272,2.5795 20.89621,-1.0139 6.12742,-11.3289 -5.47638,-3.8249 -10.86594,-8.2784 -11.97681,-9.8967 -1.18084,-1.7202 -4.13488,-0.8271 -7.11218,2.1502 -6.31566,6.3157 -10.44331,6.4767 -12.73797,0.4969 -0.96993,-2.5276 -3.43536,-4.5956 -5.47876,-4.5956 -5.43064,0 -17.07513,14.419 -17.07513,21.1436 0,5.2406 1.212,5.4908 13.02076,2.6874 7.16142,-1.7001 14.39944,-3.0359 16.08448,-2.9685 z m -10.16132,-91.99162 c -2.19839,-2.1984 -3.62538,-2.37928 -3.62538,-0.45956 0,4.08938 3.62318,7.71256 5.66787,5.66787 0.87062,-0.87059 -0.0484,-3.21432 -2.04249,-5.20831 z m 39.26656,-18.64729 c 0,-2.37846 -4.46021,-3.80596 -11.89148,-3.80596 -7.47003,0 -11.40524,1.26718 -10.58367,3.40807 1.8502,4.8216 22.47515,5.18674 22.47515,0.39789 z m 180.759,-17.63424 c 0,-1.58558 -2.9262,-2.88288 -6.5026,-2.88288 -5.4114,0 -5.8672,0.76556 -2.7166,4.56183 3.8267,4.61085 9.2192,3.62881 9.2192,-1.67895 z M 921.26138,1378.0332 c -1.95085,-29.6484 -1.04537,-36.8228 5.02917,-39.8479 3.38877,-1.6876 9.11067,-6.561 12.71535,-10.8297 3.60466,-4.2687 8.08534,-6.8148 9.95705,-5.658 5.51483,3.4083 3.72726,17.1402 -5.21208,40.0381 -6.50688,16.6671 -9.89329,21.664 -15.19722,22.4249 -5.27868,0.7572 -6.9306,-0.6309 -7.29227,-6.1274 z m 574.78722,-11.9059 c -1.1107,-1.7971 -1.2838,-4.0031 -0.3846,-4.9023 2.1946,-2.1946 8.1699,1.6723 8.1699,5.287 0,3.9154 -5.2892,3.654 -7.7853,-0.3847 z m 62.932,-22.7739 c 2.0977,-2.5276 5.1927,-4.5956 6.8777,-4.5956 1.709,0 1.3773,2.032 -0.7503,4.5956 -2.0977,2.5276 -5.1926,4.5955 -6.8777,4.5955 -1.709,0 -1.3772,-2.032 0.7503,-4.5955 z m -148.8684,-36.7646 c -9.2521,-9.2521 -9.8371,-9.298 -18.2124,-1.4297 -5.8946,5.5375 -7.0639,5.7077 -10.5296,1.5318 -2.1444,-2.5837 -6.656,-4.6976 -10.0262,-4.6976 -4.9721,0 -5.4403,-0.8279 -2.4835,-4.3907 2.9281,-3.528 2.218,-5.3248 -3.6147,-9.1465 -3.9922,-2.6158 -11.5016,-5.6046 -16.6876,-6.6418 -7.364,-1.4728 -9.096,-3.1601 -7.9078,-7.7038 1.0821,-4.1381 -0.085,-5.818 -4.0442,-5.818 -3.4173,0 -4.4421,-1.0675 -2.6551,-2.7655 2.9863,-2.8374 25.9837,0.3421 48.8662,6.7558 18.1166,5.0779 51.6566,41.9653 38.1572,41.9653 -1.7617,0 -6.6497,-3.4467 -10.8623,-7.6593 z m -132.9929,1.5319 c 0,-1.6851 1.3787,-3.0637 3.0637,-3.0637 1.6851,0 3.0637,1.3786 3.0637,3.0637 0,1.685 -1.3786,3.0637 -3.0637,3.0637 -1.685,0 -3.0637,-1.3787 -3.0637,-3.0637 z m 21.446,0.9405 c 0,-4.0951 6.7539,-10.1317 11.3358,-10.1317 2.1905,0 3.9828,2.0681 3.9828,4.5956 0,2.5276 -1.2659,4.5956 -2.8132,4.5956 -1.5472,0 -4.9939,0.8368 -7.6592,1.8596 -2.6654,1.0228 -4.8462,0.6092 -4.8462,-0.9191 z m -63.0255,-8.5205 c -21.7087,-3.668 -41.1517,-18.0666 -48.6594,-36.0351 -2.5204,-6.0321 -9.0558,-14.4682 -14.523,-18.7469 -5.4672,-4.2788 -9.0517,-8.6681 -7.9658,-9.7542 2.7192,-2.7192 9.3018,1.3265 33.2627,20.4438 17.928,14.3037 20.4066,17.4943 19.0767,24.5565 -1.7181,9.1239 2.1622,11.2957 24.0768,13.4758 13.5381,1.3469 16.1457,2.5467 14.4188,6.6345 -0.5968,1.4126 -9.4559,1.1541 -19.6868,-0.5744 z m 54.9073,-18.5529 c -1.1678,-3.0432 -3.908,-4.0173 -7.8137,-2.7777 -4.9613,1.5747 -5.8371,0.6514 -4.9986,-5.2702 0.7924,-5.5975 3.2102,-7.3908 10.9734,-8.1393 5.5931,-0.5393 9.9571,0.4678 9.9571,2.2977 0,1.7919 -1.6544,3.2579 -3.6764,3.2579 -2.8595,0 -2.8595,0.817 0,3.6764 4.5066,4.5067 4.8232,11.6421 0.5165,11.6421 -1.7379,0 -3.9691,-2.109 -4.9583,-4.6869 z m -49.1648,-5.1076 c -3.7023,-1.7889 -8.183,-7.4159 -9.9569,-12.5047 -4.1387,-11.8719 -4.2584,-11.4016 2.902,-11.4016 3.3701,0 6.1274,-1.3787 6.1274,-3.0637 0,-1.685 1.8382,-3.0637 4.0849,-3.0637 2.2468,0 8.1061,-4.0977 13.0208,-9.106 10.0246,-10.2156 13.5314,-11.4286 13.5314,-4.6807 0,2.5275 1.7234,4.7044 3.8296,4.8374 2.9738,0.1878 2.9547,0.5936 -0.085,1.8157 -2.621,1.0536 -3.3031,4.8362 -2.0636,11.4436 1.3116,6.9915 0.4432,11.0385 -2.9781,13.8779 -2.6564,2.2046 -4.8298,6.5969 -4.8298,9.7606 0,6.5688 -12.0895,7.6377 -23.5821,2.0852 z m 75.6653,-15.6166 c 0,-2.4616 2.2004,-6.3019 4.8898,-8.5339 4.2692,-3.5431 4.7553,-3.1351 3.8296,3.2145 -1.1587,7.9482 -8.7194,12.5607 -8.7194,5.3194 z m -33.7009,-2.1623 c 0,-1.685 5.5961,-3.0637 12.4357,-3.0637 7.5103,0 11.6857,1.2135 10.5421,3.0637 -1.0413,1.6851 -6.6374,3.0637 -12.4355,3.0637 -5.7982,0 -10.5423,-1.3786 -10.5423,-3.0637 z m -191.8313,-28.911 c -2.4137,-6.2904 0.9859,-14.8959 4.9235,-12.4625 1.6968,1.0488 3.0853,4.5015 3.0853,7.6727 0,7.5479 -5.653,10.9287 -8.0088,4.7898 z m 210.2137,1.6654 c 0,-1.8653 -2.8723,-3.3915 -6.3829,-3.3915 -3.7884,0 -5.8304,-1.5565 -5.0237,-3.8296 0.7475,-2.1063 4.309,-3.5013 7.9146,-3.0998 3.6056,0.4014 6.5556,-0.6326 6.5556,-2.2978 0,-1.6652 -3.4467,-3.0276 -7.6592,-3.0276 -7.698,0 -10.2471,-4.1665 -4.6613,-7.6187 4.4813,-2.7696 21.5117,10.9945 21.5117,17.386 0,3.0532 -0.5766,5.5512 -1.2814,5.5512 -0.7047,0 -3.4619,0.8369 -6.1274,1.8597 -2.6654,1.0228 -4.846,0.3334 -4.846,-1.5319 z m -21.4461,-23.6907 c 0,-1.6417 1.4919,-4.4768 3.3153,-6.3002 2.3779,-2.3779 2.1756,-5.1401 -0.7154,-9.7693 -3.5222,-5.64 -3.1783,-7.3065 2.7271,-13.2118 7.7638,-7.7637 13.1108,-5.137 7.5779,3.7226 -5.0114,8.0245 -4.7277,9.0934 2.4137,9.0934 3.3701,0 6.1275,1.3787 6.1275,3.0637 0,1.6851 -1.6346,3.0637 -3.6323,3.0637 -1.9977,0 -6.823,2.9977 -10.7229,6.6615 -3.9,3.6638 -7.0909,5.3182 -7.0909,3.6764 z m 22.1482,-1.7212 c 1.8935,-5.6808 8.4889,-6.623 8.4889,-1.2127 0,2.668 -2.1828,4.8509 -4.8508,4.8509 -2.668,0 -4.3052,-1.6372 -3.6381,-3.6382 z m -961.17525,-26.9989 c 1.04142,-1.6851 3.19079,-3.0637 4.77638,-3.0637 1.5856,0 2.88289,1.3786 2.88289,3.0637 0,1.685 -2.14938,3.0637 -4.77638,3.0637 -2.62702,0 -3.92431,-1.3787 -2.88289,-3.0637 z m 26.80746,-2.1751 c -8.01314,-1.5284 -9.01393,-5.5468 -2.04721,-8.2201 8.15845,-3.1307 15.66101,-2.0868 19.66354,2.7359 2.30933,2.7825 2.55617,4.5956 0.6257,4.5956 -1.75355,0 -5.02436,0.4957 -7.26847,1.1016 -2.24413,0.6059 -7.18222,0.5101 -10.97356,-0.2129 z m 26.80746,-0.8886 c 0,-1.6851 1.37867,-3.0638 3.06371,-3.0638 1.68504,0 3.06371,1.3787 3.06371,3.0638 0,1.685 -1.37867,3.0637 -3.06371,3.0637 -1.68504,0 -3.06371,-1.3787 -3.06371,-3.0637 z m -53.79528,-13.6893 c -3.27089,-2.474 -11.19845,-4.542 -17.61679,-4.5956 -6.97898,-0.058 -10.90862,-1.3289 -9.77624,-3.1611 1.04142,-1.6851 4.89964,-3.0637 8.57383,-3.0637 8.08224,0 32.75868,9.8034 32.77477,13.0207 0.0183,3.7995 -7.61428,2.596 -13.95557,-2.2003 z m 941.52891,-6.4565 c -2.6374,-2.6373 2.9825,-13.555 6.9774,-13.555 4.0671,0 3.7012,3.9371 -0.9578,10.3086 -2.1525,2.9438 -4.8613,4.4047 -6.0196,3.2464 z m -942.88041,-10.4913 c 0,-1.6851 1.37867,-3.0637 3.06371,-3.0637 1.68504,0 3.06371,1.3786 3.06371,3.0637 0,1.685 -1.37867,3.0637 -3.06371,3.0637 -1.68504,0 -3.06371,-1.3787 -3.06371,-3.0637 z m 987.61981,-38.3036 c -2.2505,-5.8646 10.6074,-16.968 18.8089,-16.2424 16.6187,1.4702 28.8486,-8.5065 29.0078,-23.6637 0.1308,-12.4553 9.2438,-20.1305 20.3688,-17.1552 12.8897,3.4473 12.0134,8.5344 -1.852,10.7516 -11.4896,1.8372 -12.1891,2.4881 -9.0258,8.3987 2.4797,4.6335 2.5023,7.3337 0.081,9.7546 -1.8412,1.8411 -3.3476,5.5638 -3.3476,8.2726 0,5.2309 -16.683,13.8833 -33.0995,17.1666 -5.3859,1.0771 -9.7924,3.1648 -9.7924,4.6392 0,4.5528 -9.2789,2.9533 -11.1497,-1.922 z m -662.86657,-96.4413 c 0,-7.1298 1.64157,-9.5448 7.48514,-11.01141 14.32885,-3.59631 19.2211,6.92111 7.15171,15.37491 -10.28803,7.206 -14.63685,5.9096 -14.63685,-4.3635 z m -782.77786,3.0053 c 1.04142,-1.685 3.79876,-3.0637 6.12742,-3.0637 2.32867,0 5.08601,1.3787 6.12743,3.0637 1.07814,1.7445 -1.56032,3.0637 -6.12743,3.0637 -4.56709,0 -7.20556,-1.3192 -6.12742,-3.0637 z m 31.68538,-4.908 c 7.21688,-5.0549 11.83996,-4.1377 8.26883,1.6405 -1.11071,1.7971 -5.00218,3.2675 -8.64775,3.2675 l -6.62831,0 7.00723,-4.908 z m 4.37703,-30.64378 c 1.01804,-1.01803 3.66049,-1.12689 5.87212,-0.24173 2.44402,0.97804 1.71807,1.70401 -1.851,1.851 -3.22964,0.13297 -5.03916,-0.59107 -4.02112,-1.60911 z m 563.41799,-3.40641 c -8.56982,-1.6328 -31.1224,-24.07785 -31.25965,-31.1106 -0.0536,-2.74564 -2.12162,-7.66825 -4.59557,-10.93912 -2.47398,-3.27089 -4.49813,-9.09846 -4.49813,-12.95015 0,-4.04692 -3.16157,-9.07463 -7.4897,-11.91051 -9.21447,-6.03756 -40.925,-10.83447 -42.39859,-6.41373 -1.0328,3.09839 -3.62937,2.26633 -17.08157,-5.47384 l -7.22747,-4.15859 9.52526,-2.09211 c 5.23892,-1.15063 9.52529,-3.36123 9.52529,-4.91238 0,-1.55116 2.59656,-2.82027 5.7701,-2.82027 3.19348,0 6.4856,-2.73617 7.37245,-6.12742 0.88131,-3.37008 3.8979,-6.12742 6.70358,-6.12742 2.80569,0 7.28382,-2.18259 9.95142,-4.85019 3.45173,-3.45173 9.79293,-4.6713 21.99306,-4.22972 23.91639,0.86558 24.80213,0.64279 24.80213,-6.23864 0,-6.58412 4.47645,-8.21363 7.79835,-2.83871 1.28369,2.07707 3.57157,1.09145 6.20986,-2.67523 2.2975,-3.28016 10.34675,-7.51743 17.88719,-9.41613 21.92369,-5.52047 62.45247,-3.74579 58.55286,2.56389 -0.76675,1.24066 5.1081,1.66427 13.05523,0.94136 14.41865,-1.31164 14.46025,-1.28786 19.58332,11.18263 5.58699,13.59978 10.66601,15.33396 22.39719,7.6474 7.34326,-4.81147 21.26221,-3.47285 19.35906,1.86184 -0.51402,1.4408 -5.63057,5.8045 -11.37009,9.69707 -12.60579,8.54928 -18.92212,17.93744 -13.41872,19.94463 2.46706,0.89978 2.80021,3.08791 0.98958,6.49944 -1.50128,2.82867 -3.50112,7.62037 -4.44409,10.64824 -0.97567,3.13285 -4.0426,5.11321 -7.117,4.59556 -3.94633,-0.66446 -5.40248,1.12686 -5.40248,6.64605 0,6.12744 -2.60605,8.55724 -13.7867,12.85415 -7.58268,2.91415 -18.09855,5.37342 -23.36863,5.46508 -5.27004,0.0916 -11.2982,2.23461 -13.39589,4.76217 -2.09768,2.52756 -7.18247,4.59557 -11.29954,4.59557 -9.33016,0 -20.07521,5.51899 -17.82708,9.15654 0.92517,1.49692 -0.17402,3.84045 -2.44301,5.20778 -2.2688,1.36734 -5.01186,4.89876 -6.09571,7.84757 -1.9749,5.37329 -3.69456,5.69455 -16.95631,3.16779 z M 453.4002,922.74348 c -2.21028,-0.73677 -5.47534,0.11704 -7.25567,1.89739 -2.27348,2.27349 -1.07732,2.6722 4.01871,1.33957 4.14274,-1.08336 5.53153,-2.4721 3.23696,-3.23696 z m 122.12955,2.41347 c 0,-1.68505 -1.37867,-3.06371 -3.06371,-3.06371 -1.68504,0 -3.06371,1.37866 -3.06371,3.06371 0,1.68504 1.37867,3.06371 3.06371,3.06371 1.68504,0 3.06371,-1.37867 3.06371,-3.06371 z m -260.41533,39.82823 c 0,-1.68505 0.60796,-3.06371 1.35103,-3.06371 0.74307,0 2.20311,1.37866 3.24453,3.06371 1.04141,1.68504 0.43346,3.0637 -1.35104,3.0637 -1.78449,0 -3.24452,-1.37866 -3.24452,-3.0637 z m 294.11614,-3.25164 c -2.52756,-1.33854 -7.00824,-3.17922 -9.95706,-4.09042 -2.94881,-0.91124 -5.36148,-3.61022 -5.36148,-5.99777 0,-3.38034 4.85922,-4.24912 21.95822,-3.92577 29.93798,0.56608 30.91669,6.33431 2.55145,15.03758 -2.52756,0.77554 -6.66357,0.31491 -9.19113,-1.02362 z M 961.97343,924.9321 c -5.89942,-2.36215 -6.55852,-3.72498 -3.55299,-7.34644 2.02956,-2.44545 6.66759,-5.35206 10.30678,-6.45915 3.63917,-1.10708 8.68467,-3.79208 11.21223,-5.9667 4.32513,-3.72116 55.21435,-11.59366 57.85755,-8.95048 0.6744,0.67438 -0.5178,3.32747 -2.6493,5.89574 -2.601,3.13403 -9.3433,4.66962 -20.5028,4.66962 -19.50075,0 -36.95384,7.38599 -31.88512,13.49343 6.3981,7.70925 -6.14954,10.52465 -20.78635,4.66398 z m -723.45176,-2.61423 c 0,-1.80857 -2.75734,-3.28834 -6.12743,-3.28834 -3.37007,0 -6.12741,-1.37867 -6.12741,-3.06371 0,-1.68504 5.61577,-3.06371 12.47947,-3.06371 10.2047,0 12.29252,0.97089 11.45374,5.32632 -1.11293,5.77895 -11.67837,9.47871 -11.67837,4.08944 z m -21.44597,-18.6069 c 0,-5.32383 2.04248,-6.12741 15.57385,-6.12741 11.13345,0 15.19064,1.09191 14.22982,3.82964 -0.82802,2.35927 -5.63115,3.48466 -12.51016,2.9311 -6.28459,-0.50572 -11.16609,0.49881 -11.16609,2.29779 0,1.75796 -1.37867,3.19631 -3.06371,3.19631 -1.68505,0 -3.06371,-2.75734 -3.06371,-6.12743 z m -38.47673,-13.88411 c 7.57777,-5.73156 10.90334,-5.70184 10.90334,0.0975 0,2.9945 -2.9353,4.56161 -8.42521,4.49813 -8.06999,-0.0934 -8.17446,-0.28706 -2.47813,-4.59556 z m 46.13601,2.62636 c -13.82303,-3.05868 -15.62195,-4.55732 -8.68602,-7.23614 7.84855,-3.0313 23.08989,0.43131 24.82615,5.64017 1.21366,3.64097 -4.3928,4.19534 -16.14013,1.59597 z"
         id="path3833"
         inkscape:connector-curvature="0" />
    </g>
  </g>
</svg>
